<svg xmlns="http://www.w3.org/2000/svg" version="1.1" xmlns:xlink="http://www.w3.org/1999/xlink" xmlns:svgjs="http://svgjs.dev/svgjs" width="1000" height="1000" viewBox="0 0 1000 1000"><rect width="1000" height="1000" fill="#ffffff"></rect><g transform="matrix(0.7,0,0,0.7,149.57575757575756,435.4600321679885)"><svg viewBox="0 0 396 73" data-background-color="#ffffff" preserveAspectRatio="xMidYMid meet" height="184" width="1000" xmlns="http://www.w3.org/2000/svg" xmlns:xlink="http://www.w3.org/1999/xlink"><g id="tight-bounds" transform="matrix(1,0,0,1,0.2400000000000091,0.0793295942301313)"><svg viewBox="0 0 395.52 72.84134081153972" height="72.84134081153972" width="395.52"><g><svg viewBox="0 0 643.6196913121232 118.53287137915746" height="72.84134081153972" width="395.52"><g transform="matrix(1,0,0,1,0,16.381894669623073)"><svg viewBox="0 0 395.52 85.76908203991131" height="85.76908203991131" width="395.52"><g id="textblocktransform"><svg viewBox="0 0 395.52 85.76908203991131" height="85.76908203991131" width="395.52" id="textblock"><g><svg viewBox="0 0 395.52 85.76908203991131" height="85.76908203991131" width="395.52"><g transform="matrix(1,0,0,1,0,0)"><svg width="395.52" viewBox="1.3 -37.1 225.48 48.900000000000006" height="85.76908203991131" data-palette-color="#ff6452"><path d="M11.05 0.6Q8.6 0.6 6.55 0.15 4.5-0.3 3.15-0.83 1.8-1.35 1.8-1.4L1.8-1.4 1.3-2.2Q1.35-2.55 1.55-3.75 1.75-4.95 1.98-6.93 2.2-8.9 2.25-10.6L2.25-10.6 7.3-10.95Q7.3-7.45 8.45-6.1 9.6-4.75 12.35-4.75L12.35-4.75Q14.35-4.75 15.55-5.58 16.75-6.4 16.75-7.85L16.75-7.85Q16.75-9.35 15.33-10.35 13.9-11.35 10.9-12.7L10.9-12.7Q10.5-12.9 10.13-13.08 9.75-13.25 9.45-13.4L9.45-13.4Q5.85-15.1 3.75-17.15 1.65-19.2 1.65-22.5L1.65-22.5Q1.65-25.5 3.45-27.85 5.25-30.2 8.47-31.5 11.7-32.8 15.85-32.8L15.85-32.8Q18.15-32.8 20.15-32.5 22.15-32.2 23.35-31.88 24.55-31.55 24.85-31.45L24.85-31.45 25.3-30.6Q25.25-30.3 25.03-29.15 24.8-28 24.5-25.98 24.2-23.95 24.05-21.95L24.05-21.95 19.4-21.6 18.9-22 18.95-23.35Q18.95-25.35 17.9-26.25 16.85-27.15 14.6-27.15L14.6-27.15Q12.8-27.15 11.65-26.33 10.5-25.5 10.5-24.15L10.5-24.15Q10.5-23.05 11.35-22.2 12.2-21.35 13.35-20.73 14.5-20.1 16.95-19L16.95-19Q19.65-17.8 21.45-16.7 23.25-15.6 24.48-13.85 25.7-12.1 25.7-9.65L25.7-9.65Q25.7-6.55 23.9-4.23 22.1-1.9 18.8-0.65 15.5 0.6 11.05 0.6L11.05 0.6ZM42.5-3.35Q43.6-3.6 44.07-4.17 44.55-4.75 44.6-5.95L44.6-5.95 44.7-13.85Q44.75-15.95 44.07-16.88 43.4-17.8 41.95-17.8L41.95-17.8Q40.55-17.8 38.5-16.3L38.5-16.3 38.35-13.2Q37.95-6.7 37.95-5.6L37.95-5.6Q37.95-4.5 38.25-4.08 38.55-3.65 39.35-3.65L39.35-3.65 40.45-3.7 40.55-3.45 40 0.2Q39.4 0.15 37.75 0.08 36.1 0 34.4 0L34.4 0Q32.6 0 30.57 0.1 28.55 0.2 27.95 0.25L27.95 0.25 28.45-3.4Q29.9-3.5 30.45-4.1 31-4.7 31-6.1L31-6.1 31-15.8Q31-17.55 30.52-18.15 30.05-18.75 28.6-18.75L28.6-18.75 27.85-18.75 27.65-19.05 28-22.2Q31.15-22.65 34.27-23.2 37.4-23.75 38.3-23.9L38.3-23.9 38.85-23.35Q38.75-23.05 38.55-21.98 38.35-20.9 38.25-19.85L38.25-19.85 38.5-19.65Q40.15-21.2 41.95-22.55 43.75-23.9 44.5-23.9L44.5-23.9Q48.3-23.9 50.32-22.2 52.35-20.5 52.35-17.4L52.35-17.4Q52.35-16 51.9-11.85L51.9-11.85Q51.4-6.85 51.4-5.65L51.4-5.65Q51.4-4.5 51.72-4.03 52.05-3.55 52.85-3.55L52.85-3.55 54.25-3.6 54.35-3.4 53.85 0.2Q53.2 0.15 51.47 0.08 49.75 0 48 0L48 0Q46.8 0 44.8 0.13 42.8 0.25 42.15 0.3L42.15 0.3 42.5-3.35ZM68 0.6Q62.45 0.6 59.37-2.53 56.3-5.65 56.3-11.2L56.3-11.2Q56.3-14.85 57.85-17.75 59.4-20.65 62.17-22.28 64.95-23.9 68.5-23.9L68.5-23.9Q77.4-23.9 77.4-14.75L77.4-14.75Q77.4-13.2 77.05-11.7L77.05-11.7 76.45-11.15 64-11.15Q64.09-8.15 65.62-6.58 67.15-5 69.8-5L69.8-5Q72.45-5 75.65-6.45L75.65-6.45 76.09-6.25 77-3.25Q75.09-1.8 72.55-0.6 70 0.6 68 0.6L68 0.6ZM63.9-14.35L69.55-14.7Q70.05-14.8 70.2-14.98 70.34-15.15 70.34-15.75L70.34-15.75Q70.34-19.25 67.65-19.25L67.65-19.25Q64.09-19.25 63.9-14.35L63.9-14.35ZM98.09 0.6Q95.74 0.6 94.39-0.35 93.04-1.3 92.84-3.15L92.84-3.15 92.34-3.35Q90.79-1.8 89.27-0.7 87.74 0.4 86.79 0.4L86.79 0.4Q84.84 0.4 83.22-0.63 81.59-1.65 80.67-3.45 79.74-5.25 79.74-7.4L79.74-7.4Q79.74-9 80.59-10.18 81.44-11.35 82.79-11.65L82.79-11.65 92.49-13.7 92.49-14.4Q92.49-16.35 91.39-17.43 90.29-18.5 88.29-18.5L88.29-18.5Q86.99-18.5 85.39-17.82 83.79-17.15 82.49-16.25L82.49-16.25 81.99-16.5 80.94-19.95Q83.69-21.45 86.54-22.68 89.39-23.9 90.64-23.9L90.64-23.9Q95.34-23.9 97.52-21.95 99.69-20 99.69-16.9L99.69-16.9Q99.69-16.2 99.19-12.3L99.19-12.3Q99.14-11.7 98.89-9.85 98.64-8 98.64-7.25L98.64-7.25Q98.64-6.4 99.09-5.88 99.54-5.35 100.29-5.35L100.29-5.35Q101.24-5.35 102.39-6L102.39-6 103.19-4.85Q102.19-3 100.74-1.35 99.29 0.3 98.09 0.6L98.09 0.6ZM89.19-5.1Q89.84-5.1 90.72-5.38 91.59-5.65 92.29-6.05L92.29-6.05 92.39-10.55 87.84-9.4Q87.24-9.25 86.99-8.93 86.74-8.6 86.74-8L86.74-8Q86.74-6.75 87.42-5.93 88.09-5.1 89.19-5.1L89.19-5.1ZM104.34-3.35Q105.74-3.55 106.17-4.23 106.59-4.9 106.59-6.7L106.59-6.7 106.59-29.2Q106.59-30.45 106.34-31.08 106.09-31.7 105.44-31.9L105.44-31.9Q104.94-32 104.14-32 103.34-32 103.14-32L103.14-32Q103.09-32.1 103.06-32.25 103.04-32.4 102.99-32.5L102.99-32.5 103.29-35.4Q106.49-35.8 110.14-36.35 113.79-36.9 114.89-37.1L114.89-37.1 115.29-36Q114.49-35.2 114.06-26.98 113.64-18.75 113.64-5.45L113.64-5.45Q113.64-4.35 113.94-3.93 114.24-3.5 114.99-3.5L114.99-3.5 116.09-3.55 116.19-3.25 115.59 0.25Q114.99 0.2 113.02 0.1 111.04 0 109.79 0L109.79 0Q108.14 0 106.29 0.1 104.44 0.2 103.89 0.25L103.89 0.25 104.34-3.35ZM114.19-11.65L114.34-13 118.54-17.5Q119.09-18.05 119.29-18.43 119.49-18.8 119.49-19.15L119.49-19.15Q119.49-19.7 118.92-19.93 118.34-20.15 116.94-20.15L116.94-20.15 116.79-20.4 117.24-23.4Q117.84-23.4 119.69-23.35 121.54-23.3 123.79-23.3L123.79-23.3Q125.34-23.3 127.12-23.38 128.89-23.45 129.44-23.5L129.44-23.5 129.59-23.25 129.14-19.8Q127.39-19.05 125.74-17.65 124.09-16.25 121.94-14.05L121.94-14.05 121.14-13.25 124.89-6.85Q125.84-5.2 126.97-4.38 128.09-3.55 129.49-3.35L129.49-3.35 129.74-2.85 129.34 0.15Q128.99 0.2 127.79 0.4 126.59 0.6 125.74 0.65L125.74 0.65 124.54 0.7Q123.89 0.7 123.29 0.6L123.29 0.6Q121.79 0.35 120.81-0.5 119.84-1.35 118.74-3.35L118.74-3.35 114.19-11.65ZM140.79 0.6Q138.34 0.6 136.29 0.15 134.24-0.3 132.89-0.83 131.54-1.35 131.54-1.4L131.54-1.4 131.04-2.2Q131.09-2.55 131.29-3.75 131.49-4.95 131.71-6.93 131.94-8.9 131.99-10.6L131.99-10.6 137.04-10.95Q137.04-7.45 138.19-6.1 139.34-4.75 142.09-4.75L142.09-4.75Q144.09-4.75 145.29-5.58 146.49-6.4 146.49-7.85L146.49-7.85Q146.49-9.35 145.06-10.35 143.64-11.35 140.64-12.7L140.64-12.7Q140.24-12.9 139.86-13.08 139.49-13.25 139.19-13.4L139.19-13.4Q135.59-15.1 133.49-17.15 131.39-19.2 131.39-22.5L131.39-22.5Q131.39-25.5 133.19-27.85 134.99-30.2 138.21-31.5 141.44-32.8 145.59-32.8L145.59-32.8Q147.89-32.8 149.89-32.5 151.89-32.2 153.09-31.88 154.29-31.55 154.59-31.45L154.59-31.45 155.04-30.6Q154.99-30.3 154.76-29.15 154.54-28 154.24-25.98 153.94-23.95 153.79-21.95L153.79-21.95 149.14-21.6 148.64-22 148.69-23.35Q148.69-25.35 147.64-26.25 146.59-27.15 144.34-27.15L144.34-27.15Q142.54-27.15 141.39-26.33 140.24-25.5 140.24-24.15L140.24-24.15Q140.24-23.05 141.09-22.2 141.94-21.35 143.09-20.73 144.24-20.1 146.69-19L146.69-19Q149.39-17.8 151.19-16.7 152.99-15.6 154.21-13.85 155.44-12.1 155.44-9.65L155.44-9.65Q155.44-6.55 153.64-4.23 151.84-1.9 148.54-0.65 145.24 0.6 140.79 0.6L140.79 0.6ZM158.04 11.8L158.54 8.15Q159.84 8.05 160.24 7.5 160.64 6.95 160.74 5.25L160.74 5.25Q160.74 4.75 160.84 3.55L160.84 3.55Q161.04-0.05 161.04-2.1L161.04-2.1 161.04-15.8Q161.04-17.55 160.54-18.15 160.04-18.75 158.59-18.75L158.59-18.75 157.89-18.75 157.69-19.05 157.99-22.2Q161.19-22.65 164.26-23.2 167.34-23.75 168.24-23.9L168.24-23.9 168.74-23.35Q168.69-23.05 168.49-22 168.29-20.95 168.19-20L168.19-20 168.39-19.85Q172.14-23.7 172.99-23.7L172.99-23.7Q175.99-23.7 178.26-22.3 180.54-20.9 181.79-18.38 183.04-15.85 183.04-12.55L183.04-12.55Q183.04-8.5 181.34-5.58 179.64-2.65 176.56-1.1 173.49 0.45 169.39 0.45L169.39 0.45Q168.94 0.45 168.54 0.4 168.14 0.35 167.99 0.35L167.99 0.35 167.99 4.7Q167.99 6.6 168.24 7.25 168.49 7.9 169.54 7.9L169.54 7.9Q170.44 7.9 170.99 7.85 171.54 7.8 171.69 7.8L171.69 7.8 171.84 8 171.24 11.65 169.74 11.6Q166.64 11.5 164.49 11.5L164.49 11.5Q162.79 11.5 160.71 11.63 158.64 11.75 158.04 11.8L158.04 11.8ZM171.34-4.35Q173.24-4.35 174.29-5.95 175.34-7.55 175.34-10.55L175.34-10.55Q175.34-14.15 174.26-16.07 173.19-18 171.24-18L171.24-18Q169.99-18 168.49-17L168.49-17Q168.24-10.6 168.24-4.95L168.24-4.95Q169.84-4.35 171.34-4.35L171.34-4.35ZM196.53 0.6Q191.53 0.6 188.56-2.55 185.58-5.7 185.58-11L185.58-11Q185.58-14.9 187.11-17.82 188.63-20.75 191.41-22.33 194.18-23.9 197.88-23.9L197.88-23.9Q203.03-23.9 205.93-20.85 208.83-17.8 208.83-12.3L208.83-12.3Q208.83-8.4 207.33-5.48 205.83-2.55 203.03-0.98 200.23 0.6 196.53 0.6L196.53 0.6ZM197.38-3.85Q199.18-3.85 200.01-5.25 200.83-6.65 200.83-9.8L200.83-9.8Q200.83-14.55 199.86-16.73 198.88-18.9 196.88-18.9L196.88-18.9Q195.08-18.9 194.26-17.5 193.43-16.1 193.43-13.05L193.43-13.05Q193.43-8.2 194.41-6.03 195.38-3.85 197.38-3.85L197.38-3.85ZM220.63 0.6Q213.48 0.6 213.48-5.6L213.48-5.6 213.48-16.15Q213.48-17.8 212.96-18.35 212.43-18.9 210.83-18.95L210.83-18.95 210.23-19.35 210.58-22.25Q212.73-23.25 214.86-24.55 216.98-25.85 218.38-26.8 219.78-27.75 220.13-28.05L220.13-28.05 221.73-27.15Q221.68-26.85 221.48-25.58 221.28-24.3 221.08-22.5L221.08-22.5 226.23-22.65 226.48-22.4 225.93-18.6 220.73-18.75Q220.48-14.25 220.48-8.75L220.48-8.75Q220.48-6.85 221.16-5.95 221.83-5.05 223.33-5.05L223.33-5.05Q224.13-5.05 224.98-5.3 225.83-5.55 226.08-5.65L226.08-5.65 226.78-3.85Q226.43-3.5 225.28-2.45 224.13-1.4 222.78-0.4 221.43 0.6 220.63 0.6L220.63 0.6Z" opacity="1" transform="matrix(1,0,0,1,0,0)" fill="#ff6452" class="wordmark-text-0" data-fill-palette-color="primary" id="text-0"></path></svg></g></svg></g></svg></g></svg></g><g transform="matrix(1,0,0,1,415.7680218116541,0)"><svg viewBox="0 0 227.85166950046917 118.53287137915746" height="118.53287137915746" width="227.85166950046917"><g><svg xmlns="http://www.w3.org/2000/svg" xmlns:xlink="http://www.w3.org/1999/xlink" version="1.1" x="0" y="0" viewBox="4.828045506129648 26.114000000000004 90.34395449387037 46.99868278948178" enable-background="new 0 0 100 100" xml:space="preserve" height="118.53287137915746" width="227.85166950046917" class="icon-icon-0" data-fill-palette-color="accent" id="icon-0"><g fill="#ff6452" data-fill-palette-color="accent"><path d="M17.408 70.173c0 1.66 2.53 2.939 3.714 2.939 17.632 0 69.747-0.006 69.747-0.006s4.303 0.289 4.303-2.934c0-1.369 0-2.712 0-3.897H17.408V70.173z" fill="#ff6452" data-fill-palette-color="accent"></path><path d="M92.924 58.155l-13.395-3.558c-1.018 3.165-2.318 6.21-3.91 9.132h19.553v-0.982C95.172 61.676 92.924 58.155 92.924 58.155z" fill="#ff6452" data-fill-palette-color="accent"></path><path d="M40.25 33.5C33.625 44 21.658 57.375 17.408 57.375v6.354H36.5c0 0-2.25-17.813 7.25-28.604C43.451 32.089 40.959 32.846 40.25 33.5z" fill="#ff6452" data-fill-palette-color="accent"></path><path d="M40.125 32c1.625-1.333 4.917-0.208 4.625 3.667-10.25 12-6.25 28.063-6.25 28.063h34.527l2.947-6.159c0.506-1.239 0.977-2.49 1.385-3.771l-1.334-2.58c0 0-21.984-11.43-22.371-11.82-0.395-0.39-9.184-10.55-9.184-10.55h-2.639c0 0-2.149-2.736-4.298-2.736-2.151 0-4.201 5.471-4.201 5.471s-8.792 0.289-13.872 0.289c-5.079 0-13.871-4.295-13.871-4.295-1.466 2.933 1.856 3.908-0.197 5.959-1.296 1.296-0.095 3.958 0.966 5.743 2.449 0.806 4.911 1.346 7.529 1.384 1.208 0.018 1.209 1.894 0 1.875-2.189-0.034-4.289-0.39-6.359-0.953 0.005 1.138 0.244 3.835 2.096 5.442 2.21 0.245 4.414 0.433 6.625-0.062 1.178-0.267 1.677 1.542 0.499 1.806-1.698 0.383-3.373 0.404-5.053 0.297 0.486 4.898 4.638 4.271 4.638 5.373 0 1.176 1.075 2.249 1.075 2.249C26.815 52.756 31.694 42.02 40.125 32zM70.842 50.582c0.717 0 1.293 0.46 1.293 1.033 0 0.566-0.576 1.025-1.293 1.025-0.703 0-1.285-0.459-1.285-1.025C69.557 51.042 70.139 50.582 70.842 50.582zM64.982 48.236c0.711 0 1.285 0.461 1.285 1.031s-0.574 1.029-1.285 1.029-1.291-0.459-1.291-1.029S64.271 48.236 64.982 48.236zM59.123 45.892c0.711 0 1.293 0.462 1.293 1.032 0 0.569-0.582 1.029-1.293 1.029-0.715 0-1.289-0.46-1.289-1.029C57.834 46.354 58.408 45.892 59.123 45.892z" fill="#ff6452" data-fill-palette-color="accent"></path></g></svg></g></svg></g></svg></g><defs></defs></svg><rect width="395.52" height="72.84134081153972" fill="none" stroke="none" visibility="hidden"></rect></g></svg></g></svg>